<svg width="22" height="22" viewBox="0 0 22 22" fill="none" xmlns="http://www.w3.org/2000/svg">
<path d="M14.0888 13.9397L14.5316 16.5142L12.2182 15.2982C11.0531 14.6858 9.66122 14.6858 8.4961 15.2982L6.18265 16.5142L6.62502 13.9423C6.84857 12.6426 6.4171 11.3162 5.47167 10.3967L3.5987 8.57524L6.18973 8.19845C7.4913 8.00918 8.61665 7.19215 9.19966 6.01316L10.3571 3.67248L11.5146 6.01316C12.0976 7.19215 13.223 8.00918 14.5246 8.19845L17.1084 8.57419L15.2382 10.398C14.2954 11.3174 13.8656 12.6419 14.0888 13.9397ZM2.66693 8.71451C2.66687 8.71447 2.6683 8.71394 2.67141 8.71304C2.66854 8.71411 2.66698 8.71455 2.66693 8.71451ZM10.7865 2.80483C10.7865 2.80486 10.7861 2.80559 10.7852 2.80696C10.7861 2.80549 10.7865 2.8048 10.7865 2.80483ZM9.92915 2.80704C9.92819 2.80562 9.92774 2.80486 9.92775 2.80483C9.92777 2.8048 9.92824 2.80551 9.92915 2.80704ZM18.0474 8.71451C18.0473 8.71455 18.0457 8.71411 18.0429 8.71304C18.046 8.71393 18.0474 8.71447 18.0474 8.71451Z" stroke="#434343" stroke-width="2"/>
<line x1="0.353553" y1="0.646447" x2="21.3536" y2="21.6464" stroke="#434343"/>
</svg>
