<svg width="17" height="16" viewBox="0 0 17 16" fill="none" xmlns="http://www.w3.org/2000/svg">
<path d="M12.1363 11.9776L12.5831 14.5749L10.2492 13.3481C9.08407 12.7357 7.69224 12.7357 6.52712 13.3481L4.19324 14.5749L4.63952 11.9802C4.86307 10.6805 4.4316 9.35412 3.48617 8.43466L1.59665 6.59705L4.21052 6.21694C5.51209 6.02767 6.63744 5.21064 7.22046 4.03165L8.38815 1.67032L9.55584 4.03165C10.1389 5.21064 11.2642 6.02767 12.5658 6.21694L15.1724 6.596L13.2857 8.4359C12.343 9.3553 11.9131 10.6798 12.1363 11.9776ZM0.668308 6.73589C0.668252 6.73584 0.669664 6.73532 0.672715 6.73443C0.669888 6.73549 0.668363 6.73593 0.668308 6.73589ZM8.81597 0.805868C8.81599 0.805895 8.81555 0.806613 8.81465 0.807955C8.81551 0.806512 8.81596 0.805842 8.81597 0.805868ZM7.9617 0.808041C7.96076 0.806647 7.96032 0.805896 7.96033 0.805868C7.96034 0.805841 7.96081 0.806537 7.9617 0.808041ZM16.108 6.73589C16.1079 6.73593 16.1064 6.73548 16.1036 6.73443C16.1066 6.73532 16.1081 6.73585 16.108 6.73589Z" stroke="#434343" stroke-width="2"/>
</svg>
